<svg class="header__logo" width="222" height="222" viewBox="0 0 222 222" xmlns="http://www.w3.org/2000/svg"><g fill="none" fill-rule="evenodd"><circle fill="#E42612" cx="111" cy="111" r="111"></circle><path d="M68.458 160.012c-.099-.276-.294-.48-.589-.612l-6.968-2.74a1.224 1.224 0 0 0-.957 0 1.503 1.503 0 0 0-.71.587c-.852 1.37-2.005 2.489-3.46 3.353-1.456.865-3.084 1.296-4.882 1.296a8.036 8.036 0 0 1-3.509-.784 9.79 9.79 0 0 1-2.871-2.061 9.253 9.253 0 0 1-1.913-2.97 9.353 9.353 0 0 1-.687-3.557c0-1.21.228-2.387.687-3.532a9.486 9.486 0 0 1 4.784-5.104 8.05 8.05 0 0 1 3.509-.785c1.896 0 3.515.4 4.857 1.2 1.34.8 2.486 1.95 3.435 3.45.163.261.409.457.736.586.326.132.654.132.98 0l6.97-2.74c.294-.13.49-.343.588-.636a.934.934 0 0 0-.099-.831 30.786 30.786 0 0 0-3.115-4.137 17.79 17.79 0 0 0-3.803-3.205c-1.406-.88-2.977-1.566-4.71-2.056-1.735-.49-3.68-.734-5.84-.734-2.617 0-5.07.489-7.36 1.468-2.29.98-4.293 2.3-6.01 3.964a18.238 18.238 0 0 0-4.05 5.873c-.98 2.252-1.471 4.65-1.471 7.195s.49 4.944 1.472 7.195c.981 2.25 2.33 4.208 4.049 5.872 1.717 1.664 3.72 2.986 6.01 3.965 2.29.978 4.743 1.468 7.36 1.468 2.094 0 4.007-.244 5.741-.73 1.734-.487 3.312-1.168 4.735-2.045a17.979 17.979 0 0 0 3.852-3.189 27.994 27.994 0 0 0 3.14-4.167c.164-.293.197-.579.099-.857zm-.344 8.785c-.13.263-.179.49-.146.687a.96.96 0 0 0 .662.782c.18.066.352.098.515.098h8.44c.327 0 .646-.105.957-.319a1.82 1.82 0 0 0 .663-.758l1.373-2.937c.131-.293.351-.546.663-.758.31-.212.645-.319 1.006-.319H92.6c.327 0 .645.107.957.319.31.212.547.465.711.758l1.326 2.937c.162.293.4.547.71.758.311.214.646.319 1.007.319h8.39c.523 0 .875-.163 1.055-.49.18-.325.205-.636.074-.928l-14.328-33.282a1.826 1.826 0 0 0-.663-.758c-.31-.212-.63-.319-.956-.319h-6.87c-.36 0-.696.107-1.006.319-.31.212-.532.465-.663.758l-14.23 33.133zm16.39-12.161c-.132-.213-.132-.465 0-.76l2.454-5.92c.13-.295.276-.441.44-.441.164 0 .31.146.443.44.392.946.817 1.966 1.276 3.059.456 1.093.85 2.048 1.177 2.863.163.294.172.546.024.759-.147.212-.384.317-.711.317H85.24c-.36 0-.606-.105-.737-.317zm66.685-21.706a1.133 1.133 0 0 0-.83-.343h-6.836c-.326 0-.667.098-1.026.294-.357.195-.634.424-.829.685l-9.444 13.802c-.164.26-.378.391-.64.391s-.492-.13-.688-.391l-9.445-13.802c-.162-.261-.422-.49-.78-.685-.359-.196-.7-.294-1.026-.294h-6.835c-.325 0-.603.115-.83.343a1.132 1.132 0 0 0-.342.832v33.427c0 .326.113.605.34.832.23.229.506.343.832.343h7.372c.325 0 .602-.114.83-.343a1.13 1.13 0 0 0 .342-.832v-15.758c0-.327.147-.507.442-.538.295-.034.526.08.689.342l8.263 13.262c.197.262.475.392.836.392.36 0 .623-.13.787-.392l8.264-13.262c.195-.262.442-.376.737-.342.295.031.443.21.443.538v15.758c0 .326.114.605.341.832.228.229.505.343.83.343h7.373c.325 0 .602-.114.83-.343.228-.227.342-.506.342-.832v-33.427c0-.326-.114-.603-.342-.832zm30.768 24.79c1.788-.67 3.28-1.582 4.476-2.74a10.98 10.98 0 0 0 2.681-4.113c.59-1.582.886-3.286.886-5.115 0-1.826-.352-3.54-1.055-5.138-.704-1.599-1.652-3.001-2.846-4.209a13 13 0 0 0-4.22-2.839c-1.62-.685-3.345-1.028-5.177-1.028h-15.014c-.328 0-.607.115-.835.343-.23.229-.344.506-.344.832v33.476c0 .326.115.605.342.832.228.229.504.343.83.343h7.372c.326 0 .602-.114.83-.343.228-.227.342-.506.342-.832v-7.293c0-.324.115-.603.345-.831.23-.227.508-.342.836-.342h4.28c2.394 0 4.484-.335 6.271-1.003zm-4.088-15.811c.525.242.968.559 1.33.948.363.39.633.835.814 1.337.18.504.271 1.015.271 1.533a4.49 4.49 0 0 1-.863 2.7c-.575.795-1.487 1.192-2.736 1.192h-5.276c-.33 0-.609-.113-.84-.34a1.12 1.12 0 0 1-.344-.828v-5.74c0-.324.116-.6.345-.827.23-.226.51-.34.84-.34h4.634c.69 0 1.298.122 1.825.365zM73.316 104.578c3.11-1.157 5.705-2.739 7.788-4.744a19.006 19.006 0 0 0 4.665-7.114c1.027-2.74 1.54-5.688 1.54-8.85 0-3.164-.613-6.127-1.835-8.894-1.225-2.767-2.875-5.195-4.952-7.285-2.078-2.088-4.525-3.726-7.342-4.913C70.363 61.593 67.36 61 64.173 61H38.048c-.57 0-1.053.199-1.45.593-.4.396-.598.876-.598 1.44v57.934c0 .564.197 1.045.594 1.44.395.394.877.593 1.444.593h12.827c.566 0 1.048-.199 1.443-.594.397-.394.596-.875.596-1.44v-12.62c0-.563.198-1.044.599-1.44.399-.394.884-.592 1.455-.592h7.447c4.163 0 7.8-.578 10.911-1.736m-7.114-27.362c.915.42 1.686.97 2.315 1.642a6.684 6.684 0 0 1 1.416 2.314c.314.872.473 1.756.473 2.652 0 1.741-.502 3.299-1.502 4.674-1 1.376-2.589 2.06-4.762 2.06h-9.178c-.575 0-1.06-.195-1.46-.587-.4-.393-.6-.872-.6-1.432v-9.934c0-.56.2-1.037.6-1.43.4-.393.885-.59 1.46-.59h8.063c1.2 0 2.26.21 3.175.63m119.2-15.622a1.99 1.99 0 0 0-1.45-.593h-12.636c-.57 0-1.054.199-1.451.593-.4.396-.598.876-.598 1.44v30.322c0 .566-.186.876-.555.931-.37.057-.725-.14-1.067-.593L145.448 62.61c-.342-.451-.826-.832-1.452-1.143-.626-.31-1.225-.466-1.792-.466h-12.807c-.57 0-1.053.199-1.45.593-.4.396-.598.876-.598 1.44v57.934c0 .564.2 1.045.6 1.44a2 2 0 0 0 1.46.593h12.783a2 2 0 0 0 1.459-.594c.4-.394.601-.875.601-1.44V90.646c0-.564.184-.89.554-.975.368-.084.724.1 1.066.552l22.236 31.084c.341.451.824.846 1.449 1.184.624.34 1.22.51 1.788.51h12.61c.568 0 1.051-.199 1.448-.594a1.95 1.95 0 0 0 .597-1.44V63.034c0-.564-.2-1.044-.598-1.44M113.402 123.402c.399-.4.598-.883.598-1.455V71.053c0-.57-.2-1.056-.598-1.455A1.98 1.98 0 0 0 111.95 69h-12.9c-.626 0-1.124.2-1.494.598-.37.4-.556.884-.556 1.455v50.894c0 .572.185 1.056.556 1.455.37.4.868.598 1.495.598h12.9c.568 0 1.052-.199 1.45-.598" fill="#FFF"></path><path d="M105 56c5.523 0 10-4.477 10-10s-4.477-10-10-10-10 4.477-10 10 4.477 10 10 10" fill="#FFCE00"></path></g></svg>